HIERARCHY
ROOT Hips
{
    OFFSET 0.000 95.729 0.000
    CHANNELS 6 Xposition Yposition Zposition Yrotation Xrotation Zrotation
    JOINT RightUpLeg
    {
        OFFSET -9.625 -1.639 0.000
        CHANNELS 3 Yrotation Xrotation Zrotation
        JOINT RightLeg
        {
            OFFSET 0.000 -41.481 0.000
            CHANNELS 3 Yrotation Xrotation Zrotation
            JOINT RightFoot
            {
                OFFSET 0.000 -43.120 0.000
                CHANNELS 3 Yrotation Xrotation Zrotation
                End Site
                {
                    OFFSET 0.000 -7.850 17.850
                }
            }
        }
    }
    JOINT LeftUpLeg
    {
        OFFSET 9.625 -1.639 0.000
        CHANNELS 3 Yrotation Xrotation Zrotation
        JOINT LeftLeg
        {
            OFFSET 0.000 -43.120 0.000
            CHANNELS 3 Yrotation Xrotation Zrotation
            JOINT LeftFoot
            {
                OFFSET 0.000 -43.120 0.000
                CHANNELS 3 Yrotation Xrotation Zrotation
                End Site
                {
                    OFFSET 0.000 -7.850 17.850
                }
            }
        }
    }
    JOINT Spine
    {
        OFFSET 0.000 16.395 0.000
        CHANNELS 3 Yrotation Xrotation Zrotation
        JOINT Spine1
        {
            OFFSET 0.000 10.023 0.000
            CHANNELS 3 Yrotation Xrotation Zrotation
            JOINT Spine2
            {
                OFFSET 0.000 10.437 0.000
                CHANNELS 3 Yrotation Xrotation Zrotation
                JOINT Spine3
                {
                    OFFSET 0.000 10.023 0.000
                    CHANNELS 3 Yrotation Xrotation Zrotation
                    JOINT Neck
                    {
                        OFFSET 0.000 10.713 0.000
                        CHANNELS 3 Yrotation Xrotation Zrotation
                        JOINT Head
                        {
                            OFFSET 0.000 9.720 0.000
                            CHANNELS 3 Yrotation Xrotation Zrotation
                            End Site
                            {
                                OFFSET 0.000 16.450 0.000
                            }
                        }
                    }
                    JOINT RightShoulder
                    {
                        OFFSET -3.275 7.142 0.000
                        CHANNELS 3 Yrotation Xrotation Zrotation
                        JOINT RightArm
                        {
                            OFFSET -13.100 0.000 0.000
                            CHANNELS 3 Yrotation Xrotation Zrotation
                            JOINT RightForeArm
                            {
                                OFFSET -27.250 0.000 0.000
                                CHANNELS 3 Yrotation Xrotation Zrotation
                                JOINT RightHand
                                {
                                    OFFSET -26.750 0.000 0.000
                                    CHANNELS 3 Yrotation Xrotation Zrotation
                                    JOINT RightHandThumb1
                                    {
                                        OFFSET -2.560 0.196 3.210
                                        CHANNELS 3 Yrotation Xrotation Zrotation
                                        JOINT RightHandThumb2
                                        {
                                            OFFSET -3.788 0.000 0.000
                                            CHANNELS 3 Yrotation Xrotation Zrotation
                                            JOINT RightHandThumb3
                                            {
                                                OFFSET -2.631 0.000 0.000
                                                CHANNELS 3 Yrotation Xrotation Zrotation
                                                End Site
                                                {
                                                    OFFSET -2.256 0.000 0.000
                                                }
                                            }
                                        }
                                    }
                                    JOINT RightInHandIndex
                                    {
                                        OFFSET -3.316 0.523 2.035
                                        CHANNELS 3 Yrotation Xrotation Zrotation
                                        JOINT RightHandIndex1
                                        {
                                            OFFSET -5.366 -0.094 1.028
                                            CHANNELS 3 Yrotation Xrotation Zrotation
                                            JOINT RightHandIndex2
                                            {
                                                OFFSET -3.723 0.000 0.000
                                                CHANNELS 3 Yrotation Xrotation Zrotation
                                                JOINT RightHandIndex3
                                                {
                                                    OFFSET -2.111 0.000 0.000
                                                    CHANNELS 3 Yrotation Xrotation Zrotation
                                                    End Site
                                                    {
                                                        OFFSET -1.857 0.000 0.000
                                                    }
                                                }
                                            }
                                        }
                                    }
                                    JOINT RightInHandMiddle
                                    {
                                        OFFSET -3.479 0.532 0.778
                                        CHANNELS 3 Yrotation Xrotation Zrotation
                                        JOINT RightHandMiddle1
                                        {
                                            OFFSET -5.322 -0.086 0.323
                                            CHANNELS 3 Yrotation Xrotation Zrotation
                                            JOINT RightHandMiddle2
                                            {
                                                OFFSET -4.062 0.000 0.000
                                                CHANNELS 3 Yrotation Xrotation Zrotation
                                                JOINT RightHandMiddle3
                                                {
                                                    OFFSET -2.547 0.000 0.000
                                                    CHANNELS 3 Yrotation Xrotation Zrotation
                                                    End Site
                                                    {
                                                        OFFSET -2.031 0.000 0.000
                                                    }
                                                }
                                            }
                                        }
                                    }
                                    JOINT RightInHandRing
                                    {
                                        OFFSET -3.461 0.553 -0.133
                                        CHANNELS 3 Yrotation Xrotation Zrotation
                                        JOINT RightHandRing1
                                        {
                                            OFFSET -4.767 -0.023 -0.493
                                            CHANNELS 3 Yrotation Xrotation Zrotation
                                            JOINT RightHandRing2
                                            {
                                                OFFSET -3.541 0.000 0.000
                                                CHANNELS 3 Yrotation Xrotation Zrotation
                                                JOINT RightHandRing3
                                                {
                                                    OFFSET -2.456 0.000 0.000
                                                    CHANNELS 3 Yrotation Xrotation Zrotation
                                                    End Site
                                                    {
                                                        OFFSET -1.910 0.000 0.000
                                                    }
                                                }
                                            }
                                        }
                                    }
                                    JOINT RightInHandPinky
                                    {
                                        OFFSET -3.251 0.483 -1.236
                                        CHANNELS 3 Yrotation Xrotation Zrotation
                                        JOINT RightHandPinky1
                                        {
                                            OFFSET -4.259 -0.023 -1.122
                                            CHANNELS 3 Yrotation Xrotation Zrotation
                                            JOINT RightHandPinky2
                                            {
                                                OFFSET -2.835 0.000 0.000
                                                CHANNELS 3 Yrotation Xrotation Zrotation
                                                JOINT RightHandPinky3
                                                {
                                                    OFFSET -1.792 0.000 0.000
                                                    CHANNELS 3 Yrotation Xrotation Zrotation
                                                    End Site
                                                    {
                                                        OFFSET -1.692 0.000 0.000
                                                    }
                                                }
                                            }
                                        }
                                    }
                                }
                            }
                        }
                    }
                    JOINT LeftShoulder
                    {
                        OFFSET 3.275 7.142 0.000
                        CHANNELS 3 Yrotation Xrotation Zrotation
                        JOINT LeftArm
                        {
                            OFFSET 13.100 0.000 0.000
                            CHANNELS 3 Yrotation Xrotation Zrotation
                            JOINT LeftForeArm
                            {
                                OFFSET 27.250 0.000 0.000
                                CHANNELS 3 Yrotation Xrotation Zrotation
                                JOINT LeftHand
                                {
                                    OFFSET 26.750 0.000 0.000
                                    CHANNELS 3 Yrotation Xrotation Zrotation
                                    JOINT LeftHandThumb1
                                    {
                                        OFFSET 2.560 0.196 3.210
                                        CHANNELS 3 Yrotation Xrotation Zrotation
                                        JOINT LeftHandThumb2
                                        {
                                            OFFSET 3.788 0.000 0.000
                                            CHANNELS 3 Yrotation Xrotation Zrotation
                                            JOINT LeftHandThumb3
                                            {
                                                OFFSET 2.631 0.000 0.000
                                                CHANNELS 3 Yrotation Xrotation Zrotation
                                                End Site
                                                {
                                                    OFFSET 2.256 0.000 0.000
                                                }
                                            }
                                        }
                                    }
                                    JOINT LeftInHandIndex
                                    {
                                        OFFSET 3.316 0.523 2.035
                                        CHANNELS 3 Yrotation Xrotation Zrotation
                                        JOINT LeftHandIndex1
                                        {
                                            OFFSET 5.366 -0.094 1.028
                                            CHANNELS 3 Yrotation Xrotation Zrotation
                                            JOINT LeftHandIndex2
                                            {
                                                OFFSET 3.723 0.000 0.000
                                                CHANNELS 3 Yrotation Xrotation Zrotation
                                                JOINT LeftHandIndex3
                                                {
                                                    OFFSET 2.111 0.000 0.000
                                                    CHANNELS 3 Yrotation Xrotation Zrotation
                                                    End Site
                                                    {
                                                        OFFSET 1.857 0.000 0.000
                                                    }
                                                }
                                            }
                                        }
                                    }
                                    JOINT LeftInHandMiddle
                                    {
                                        OFFSET 3.479 0.532 0.778
                                        CHANNELS 3 Yrotation Xrotation Zrotation
                                        JOINT LeftHandMiddle1
                                        {
                                            OFFSET 5.322 -0.086 0.323
                                            CHANNELS 3 Yrotation Xrotation Zrotation
                                            JOINT LeftHandMiddle2
                                            {
                                                OFFSET 4.062 0.000 0.000
                                                CHANNELS 3 Yrotation Xrotation Zrotation
                                                JOINT LeftHandMiddle3
                                                {
                                                    OFFSET 2.547 0.000 0.000
                                                    CHANNELS 3 Yrotation Xrotation Zrotation
                                                    End Site
                                                    {
                                                        OFFSET 2.031 0.000 0.000
                                                    }
                                                }
                                            }
                                        }
                                    }
                                    JOINT LeftInHandRing
                                    {
                                        OFFSET 3.461 0.553 -0.133
                                        CHANNELS 3 Yrotation Xrotation Zrotation
                                        JOINT LeftHandRing1
                                        {
                                            OFFSET 4.767 -0.023 -0.493
                                            CHANNELS 3 Yrotation Xrotation Zrotation
                                            JOINT LeftHandRing2
                                            {
                                                OFFSET 3.541 0.000 0.000
                                                CHANNELS 3 Yrotation Xrotation Zrotation
                                                JOINT LeftHandRing3
                                                {
                                                    OFFSET 2.456 0.000 0.000
                                                    CHANNELS 3 Yrotation Xrotation Zrotation
                                                    End Site
                                                    {
                                                        OFFSET 1.910 0.000 0.000
                                                    }
                                                }
                                            }
                                        }
                                    }
                                    JOINT LeftInHandPinky
                                    {
                                        OFFSET 3.251 0.483 -1.236
                                        CHANNELS 3 Yrotation Xrotation Zrotation
                                        JOINT LeftHandPinky1
                                        {
                                            OFFSET 4.259 -0.023 -1.122
                                            CHANNELS 3 Yrotation Xrotation Zrotation
                                            JOINT LeftHandPinky2
                                            {
                                                OFFSET 2.835 0.000 0.000
                                                CHANNELS 3 Yrotation Xrotation Zrotation
                                                JOINT LeftHandPinky3
                                                {
                                                    OFFSET 1.792 0.000 0.000
                                                    CHANNELS 3 Yrotation Xrotation Zrotation
                                                    End Site
                                                    {
                                                        OFFSET 1.692 0.000 0.000
                                                    }
                                                }
                                            }
                                        }
                                    }
                                }
                            }
                        }
                    }
                }
            }
        }
    }
}
MOTION

Frames: 4
Frame Time: 0.008
32.36 94.52 24.88 -149.68 -1.23 0.44 15.05 -13.66 0.59 -0.00 27.91 -0.00 -17.38 -13.14 3.16 16.08 -12.07 10.88 0.00 20.86 0.00 6.40 -14.08 -3.30 -0.58 2.02 1.28 -0.14 0.50 0.32 -0.23 0.84 0.54 -0.47 0.33 0.23 -0.47 0.33 0.23 -8.12 6.39 3.79 15.87 -6.35 -4.48 5.69 -60.71 45.97 96.72 42.53 -3.76 -19.68 33.01 -31.84 21.86 -0.00 30.00 -10.00 -0.00 0.00 -10.00 -0.00 0.00 0.00 -0.00 0.00 2.55 -0.00 20.00 0.00 -0.00 24.00 0.00 -0.00 20.00 0.00 -0.00 0.00 0.00 -0.00 20.00 0.00 -0.00 24.00 0.00 -0.00 20.00 0.00 -0.00 0.00 -3.00 -0.00 20.00 0.00 -0.00 24.00 0.00 -0.00 20.00 0.00 -0.00 0.00 -8.83 -0.00 20.00 0.00 -0.00 24.00 0.00 -0.00 20.00 3.11 0.28 -8.85 -17.00 1.40 -65.01 -13.40 21.95 -2.73 11.03 29.97 24.18 -21.86 -0.00 -30.00 10.00 -0.00 0.00 10.00 -0.00 0.00 0.00 -0.00 0.00 -2.55 -0.00 -20.00 0.00 -0.00 -24.00 0.00 -0.00 -20.00 0.00 -0.00 0.00 0.00 -0.00 -20.00 0.00 -0.00 -24.00 0.00 -0.00 -20.00 0.00 -0.00 0.00 3.00 -0.00 -20.00 0.00 -0.00 -24.00 0.00 -0.00 -20.00 0.00 -0.00 0.00 8.83 -0.00 -20.00 0.00 -0.00 -24.00 0.00 -0.00 -20.00 
32.37 94.52 24.89 -149.68 -1.23 0.44 15.06 -13.67 0.59 0.00 27.92 -0.00 -17.38 -13.14 3.12 16.10 -12.08 10.88 0.00 20.85 0.00 6.42 -14.10 -3.32 -0.58 2.02 1.28 -0.14 0.50 0.32 -0.23 0.84 0.54 -0.47 0.32 0.23 -0.47 0.33 0.23 -8.11 6.36 3.77 15.93 -6.35 -4.54 5.66 -60.78 45.96 96.50 42.58 -3.84 -19.73 33.11 -31.64 21.86 -0.00 30.00 -10.00 -0.00 0.00 -10.00 -0.00 0.00 0.00 -0.00 0.00 2.55 -0.00 20.00 0.00 -0.00 24.00 0.00 -0.00 20.00 0.00 -0.00 0.00 0.00 -0.00 20.00 0.00 -0.00 24.00 0.00 -0.00 20.00 0.00 -0.00 0.00 -3.00 -0.00 20.00 0.00 -0.00 24.00 0.00 -0.00 20.00 0.00 -0.00 0.00 -8.83 -0.00 20.00 0.00 -0.00 24.00 0.00 -0.00 20.00 3.06 0.28 -8.84 -17.03 1.37 -64.98 -13.42 21.95 -2.72 11.06 30.01 24.20 -21.86 -0.00 -30.00 10.00 -0.00 0.00 10.00 -0.00 0.00 0.00 -0.00 0.00 -2.55 -0.00 -20.00 0.00 -0.00 -24.00 0.00 -0.00 -20.00 0.00 -0.00 0.00 0.00 -0.00 -20.00 0.00 -0.00 -24.00 0.00 -0.00 -20.00 0.00 -0.00 0.00 3.00 -0.00 -20.00 0.00 -0.00 -24.00 0.00 -0.00 -20.00 0.00 -0.00 0.00 8.83 -0.00 -20.00 0.00 -0.00 -24.00 0.00 -0.00 -20.00 
32.37 94.52 24.91 -149.68 -1.23 0.44 15.06 -13.67 0.59 -0.00 27.92 -0.00 -17.38 -13.14 3.12 16.13 -12.10 10.87 -0.00 20.86 0.00 6.43 -14.13 -3.34 -0.58 2.02 1.28 -0.14 0.50 0.32 -0.23 0.84 0.54 -0.47 0.32 0.23 -0.47 0.32 0.23 -8.11 6.32 3.76 15.99 -6.36 -4.61 5.64 -60.85 45.96 96.26 42.67 -3.93 -19.74 33.13 -31.47 21.86 -0.00 30.00 -10.00 -0.00 0.00 -10.00 -0.00 0.00 0.00 -0.00 0.00 2.55 -0.00 20.00 0.00 -0.00 24.00 0.00 -0.00 20.00 0.00 -0.00 0.00 0.00 -0.00 20.00 0.00 -0.00 24.00 0.00 -0.00 20.00 0.00 -0.00 0.00 -3.00 -0.00 20.00 0.00 -0.00 24.00 0.00 -0.00 20.00 0.00 -0.00 0.00 -8.83 -0.00 20.00 0.00 -0.00 24.00 0.00 -0.00 20.00 3.02 0.28 -8.83 -17.06 1.34 -64.94 -13.44 21.94 -2.72 11.12 30.01 24.20 -21.86 -0.00 -30.00 10.00 -0.00 0.00 10.00 -0.00 0.00 0.00 -0.00 0.00 -2.55 -0.00 -20.00 0.00 -0.00 -24.00 0.00 -0.00 -20.00 0.00 -0.00 0.00 0.00 -0.00 -20.00 0.00 -0.00 -24.00 0.00 -0.00 -20.00 0.00 -0.00 0.00 3.00 -0.00 -20.00 0.00 -0.00 -24.00 0.00 -0.00 -20.00 0.00 -0.00 0.00 8.83 -0.00 -20.00 0.00 -0.00 -24.00 0.00 -0.00 -20.00 
32.38 94.52 24.92 -149.68 -1.23 0.44 15.05 -13.68 0.59 0.00 27.92 0.00 -17.37 -13.14 3.09 16.17 -12.12 10.87 0.00 20.87 0.00 6.43 -14.16 -3.36 -0.58 2.02 1.28 -0.14 0.50 0.32 -0.23 0.84 0.54 -0.47 0.32 0.23 -0.47 0.32 0.23 -8.10 6.29 3.74 16.06 -6.37 -4.67 5.62 -60.92 45.96 95.67 42.91 -4.18 -19.50 32.96 -31.31 21.86 -0.00 30.00 -10.00 -0.00 0.00 -10.00 -0.00 0.00 0.00 -0.00 0.00 2.55 -0.00 20.00 0.00 -0.00 24.00 0.00 -0.00 20.00 0.00 -0.00 0.00 0.00 -0.00 20.00 0.00 -0.00 24.00 0.00 -0.00 20.00 0.00 -0.00 0.00 -3.00 -0.00 20.00 0.00 -0.00 24.00 0.00 -0.00 20.00 0.00 -0.00 0.00 -8.83 -0.00 20.00 0.00 -0.00 24.00 0.00 -0.00 20.00 2.98 0.28 -8.82 -17.09 1.31 -64.91 -13.44 21.93 -2.71 11.12 29.97 24.12 -21.86 -0.00 -30.00 10.00 -0.00 0.00 10.00 -0.00 0.00 0.00 -0.00 0.00 -2.55 -0.00 -20.00 0.00 -0.00 -24.00 0.00 -0.00 -20.00 0.00 -0.00 0.00 0.00 -0.00 -20.00 0.00 -0.00 -24.00 0.00 -0.00 -20.00 0.00 -0.00 0.00 3.00 -0.00 -20.00 0.00 -0.00 -24.00 0.00 -0.00 -20.00 0.00 -0.00 0.00 8.83 -0.00 -20.00 0.00 -0.00 -24.00 0.00 -0.00 -20.00 
